{
    "asset" : {
        "generator" : "Khronos glTF Blender I/O v1.1.46",
        "version" : "2.0"
    },
    "scene" : 0,
    "scenes" : [
        {
            "name" : "Scene",
            "nodes" : [
                0
            ]
        }
    ],
    "nodes" : [
        {
            "mesh" : 0,
            "name" : "Cylinder",
            "scale" : [
                1.9748361110687256,
                1.9748361110687256,
                1.9748361110687256
            ],
            "translation" : [
                0,
                0.30000001192092896,
                0
            ]
        }
    ],
    "materials" : [
        {
            "doubleSided" : true,
            "emissiveFactor" : [
                0,
                0,
                0
            ],
            "name" : "Material",
            "normalTexture" : {
                "index" : 0,
                "texCoord" : 0
            },
            "pbrMetallicRoughness" : {
                "baseColorTexture" : {
                    "index" : 1,
                    "texCoord" : 0
                },
                "metallicFactor" : 0,
                "roughnessFactor" : 0.5
            }
        }
    ],
    "meshes" : [
        {
            "name" : "Cylinder",
            "primitives" : [
                {
                    "attributes" : {
                        "POSITION" : 0,
                        "NORMAL" : 1,
                        "TEXCOORD_0" : 2
                    },
                    "indices" : 3,
                    "material" : 0
                }
            ]
        }
    ],
    "textures" : [
        {
            "source" : 0
        },
        {
            "source" : 1
        }
    ],
    "images" : [
        {
            "bufferView" : 4,
            "mimeType" : "image/png",
            "name" : "highres"
        },
        {
            "bufferView" : 5,
            "mimeType" : "image/png",
            "name" : "cakeskin"
        }
    ],
    "accessors" : [
        {
            "bufferView" : 0,
            "componentType" : 5126,
            "count" : 448,
            "max" : [
                1,
                0.7000000476837158,
                1
            ],
            "min" : [
                -1,
                -0.30000001192092896,
                -1
            ],
            "type" : "VEC3"
        },
        {
            "bufferView" : 1,
            "componentType" : 5126,
            "count" : 448,
            "type" : "VEC3"
        },
        {
            "bufferView" : 2,
            "componentType" : 5126,
            "count" : 448,
            "type" : "VEC2"
        },
        {
            "bufferView" : 3,
            "componentType" : 5123,
            "count" : 756,
            "type" : "SCALAR"
        }
    ],
    "bufferViews" : [
        {
            "buffer" : 0,
            "byteLength" : 5376,
            "byteOffset" : 0
        },
        {
            "buffer" : 0,
            "byteLength" : 5376,
            "byteOffset" : 5376
        },
        {
            "buffer" : 0,
            "byteLength" : 3584,
            "byteOffset" : 10752
        },
        {
            "buffer" : 0,
            "byteLength" : 1512,
            "byteOffset" : 14336
        },
        {
            "buffer" : 0,
            "byteLength" : 1350465,
            "byteOffset" : 15848
        },
        {
            "buffer" : 0,
            "byteLength" : 134933,
            "byteOffset" : 1366316
        }
    ],
    "buffers" : [
        {
            "byteLength" : 1501252,
            "uri" : "data:application/octet-stream;base64,"
        }
    ]
}
